# xmcd CD database file
#
# Track frame offsets:
#	150
#	90747
#	145081
#	169309
#	197271
#
# Disc length: 2864 seconds
#
# Revision: 0
# Processed by: cddbd v1.5.2PL0 Copyright (c) Steve Scherf et al.
# Submitted via: CDex 1.70beta2
#
DISCID=3a0b2e05
DTITLE=Sudo Quartet - Live at Banlieue Bleue
DYEAR=2011
DGENRE=Jazz
TTITLE0=Sudo 1
TTITLE1=Sudo 2
TTITLE2=Sudo 3
TTITLE3=Sudo 4
TTITLE4=Sudo 5
EXTD=YEAR: 2011
EXTT0=
EXTT1=
EXTT2=
EXTT3=
EXTT4=
PLAYORDER=
